<svg height="483pt" viewBox="0 -23 483.88 483" width="483pt" xmlns="http://www.w3.org/2000/svg"><path d="m265.898438 124.699219c-.335938-1.429688-.507813-2.898438-.507813-4.371094v-94.957031c-.003906-10.457032 8.472656-18.933594 18.929687-18.929688h174.640626c10.453124 0 18.925781 8.476563 18.917968 18.929688v94.957031c0 10.453125-8.46875 18.921875-18.917968 18.921875h-112.820313l-3.300781 2.941406-2.078125 1.847656-45.089844 40.132813v-44.921875h-11.351563c-8.769531 0-16.390624-6.019531-18.421874-14.550781zm0 0" fill="#6fe3ff"/><path d="m107.761719 124.699219h158.136719c2.03125 8.53125 9.652343 14.550781 18.421874 14.550781h11.351563v44.921875l45.089844-40.132813 2.078125-1.847656v163.039063c0 16.566406-13.429688 30-30 30h-276.839844c-16.570312 0-30-13.433594-30-30v-150.53125c0-16.566407 13.429688-30 30-30zm177.328125 111.929687v-16.660156c0-11.042969-8.953125-20-20-20s-20 8.957031-20 20v16.660156zm-70.667969 31.929688h-80c0 22.09375 17.90625 40 40 40 22.089844 0 40-17.90625 40-40zm-110.660156-31.929688v-16.660156c0-11.042969-8.957031-20-20-20-11.046875 0-20 8.957031-20 20v16.660156zm0 0" fill="#f8ec7d"/><path d="m285.089844 219.96875v16.660156h-40v-16.660156c0-11.042969 8.953125-20 20-20s20 8.957031 20 20zm0 0" fill="#e48e66"/><path d="m241.089844 94.769531v29.929688h-133.328125v-29.929688c0-5.523437 4.476562-10 10-10h113.328125c5.523437 0 10 4.476563 10 10zm0 0" fill="#e48e66"/><path d="m134.421875 268.558594h80c0 22.09375-17.910156 40-40 40-22.09375 0-40-17.90625-40-40zm0 0" fill="#e48e66"/><path d="m194 35.441406c0 11.042969-8.953125 20-20 20s-20-8.957031-20-20c0-11.046875 8.953125-20 20-20s20 8.953125 20 20zm0 0" fill="#e48e66"/><path d="m103.761719 219.96875v16.660156h-40v-16.660156c0-11.042969 8.953125-20 20-20 11.042969 0 20 8.957031 20 20zm0 0" fill="#e48e66"/><g fill="#63316d"><path d="m83.761719 193.96875c-14.355469.015625-25.984375 11.648438-26 26v16.660156c0 3.316406 2.683593 6 6 6h40c3.3125 0 6-2.683594 6-6v-16.660156c-.007813-14.355469-11.644531-25.996094-26-26zm14 36.660156h-28v-10.660156c0-5.660156 3.414062-10.761719 8.644531-12.925781 5.230469-2.164063 11.25-.96875 15.253906 3.035156 2.636719 2.617187 4.113282 6.179687 4.101563 9.890625zm0 0"/><path d="m265.089844 193.96875c-14.351563.015625-25.984375 11.648438-26 26v16.660156c0 3.316406 2.6875 6 6 6h40c3.3125 0 6-2.683594 6-6v-16.660156c-.003906-14.355469-11.640625-25.996094-26-26zm14 36.660156h-28v-10.660156c.003906-5.660156 3.414062-10.761719 8.648437-12.925781 5.230469-2.164063 11.25-.96875 15.25 3.035156 2.636719 2.617187 4.113281 6.179687 4.101563 9.890625zm0 0"/><path d="m214.421875 262.558594h-80c-3.316406 0-6 2.6875-6 6 0 25.40625 20.59375 46 46 46 25.402344 0 46-20.59375 46-46 0-3.3125-2.6875-6-6-6zm-15.964844 30.039062c-8.953125 8.953125-22.136719 12.1875-34.214843 8.398438-12.082032-3.789063-21.054688-13.976563-23.292969-26.4375h66.945312c-1.214843 6.839844-4.511719 13.140625-9.4375 18.039062zm0 0"/><path d="m74.421875 377.441406h200c3.3125 0 6-2.6875 6-6 0-3.316406-2.6875-6-6-6h-200c-3.316406 0-6 2.683594-6 6 0 3.3125 2.683594 6 6 6zm0 0"/><path d="m74.421875 407.441406h200c3.3125 0 6-2.6875 6-6 0-3.316406-2.6875-6-6-6h-200c-3.316406 0-6 2.683594-6 6 0 3.3125 2.683594 6 6 6zm0 0"/><path d="m74.421875 437.441406h200c3.3125 0 6-2.6875 6-6 0-3.316406-2.6875-6-6-6h-200c-3.316406 0-6 2.683594-6 6 0 3.3125 2.683594 6 6 6zm0 0"/><path d="m458.960938.441406h-174.640626c-13.761718.015625-24.914062 11.167969-24.929687 24.929688v93.328125h-12.300781v-23.929688c-.007813-8.832031-7.167969-15.988281-16-16h-51.089844v-18.035156c12.835938-3.046875 21.355469-15.21875 19.824219-28.320313-1.53125-13.101562-12.632813-22.980468-25.824219-22.980468s-24.292969 9.878906-25.824219 22.980468c-1.53125 13.101563 6.988281 25.273438 19.824219 28.320313v18.035156h-50.238281c-8.832031.011719-15.992188 7.167969-16 16v23.929688h-65.761719c-19.875.023437-35.9765625 16.128906-36 36v150.53125c.0234375 19.871093 16.125 35.976562 36 36h276.839844c19.875-.023438 35.976562-16.128907 36-36v-159.980469h110.121094c13.753906-.015625 24.902343-11.164062 24.917968-24.921875v-94.957031c-.011718-13.761719-11.160156-24.914063-24.917968-24.929688zm-298.960938 35c0-7.734375 6.269531-14 14-14s14 6.265625 14 14c0 7.730469-6.269531 14-14 14-7.730469-.007812-13.992188-6.273437-14-14zm-46.238281 59.328125c0-2.207031 1.789062-4 4-4h113.328125c2.210937 0 4 1.792969 4 4v23.929688h-121.328125zm199.078125 234.460938h-276.839844c-13.25-.015625-23.984375-10.75-24-24v-150.53125c.015625-13.246094 10.75-23.984375 24-24h225.65625c4.035156 8.886719 12.90625 14.582031 22.664062 14.550781h5.351563v38.921875c-.003906 2.363281 1.386719 4.503906 3.542969 5.472656s4.679687.578125 6.445312-.992187l37.179688-33.089844v149.667969c-.015625 13.25-10.75 23.984375-24 24zm159.039062-208.902344c-.007812 7.132813-5.785156 12.914063-12.917968 12.921875h-112.820313c-1.472656 0-2.894531.539062-3.992187 1.519531l-40.476563 36.027344v-31.546875c0-3.3125-2.6875-6-6-6h-11.351563c-5.996093.023438-11.210937-4.09375-12.582031-9.929688-.230469-.980468-.347656-1.984374-.347656-2.992187v-94.957031c.007813-7.140625 5.792969-12.921875 12.929687-12.929688h174.640626c7.132812.007813 12.914062 5.792969 12.917968 12.929688zm0 0"/><path d="m452.128906 42.941406h-12.980468c-3.3125 0-6 2.683594-6 6 0 3.3125 2.6875 6 6 6h12.980468c3.316406 0 6-2.6875 6-6 0-3.316406-2.683594-6-6-6zm0 0"/><path d="m391.398438 54.941406h27.152343c3.3125 0 6-2.6875 6-6 0-3.316406-2.6875-6-6-6h-27.152343c-3.3125 0-6 2.683594-6 6 0 3.3125 2.6875 6 6 6zm0 0"/><path d="m291.128906 54.941406h78.351563c3.3125 0 6-2.6875 6-6 0-3.316406-2.6875-6-6-6h-78.351563c-3.3125 0-6 2.683594-6 6 0 3.3125 2.6875 6 6 6zm0 0"/><path d="m452.128906 74.941406h-46.269531c-3.3125 0-6 2.683594-6 6 0 3.3125 2.6875 6 6 6h46.269531c3.316406 0 6-2.6875 6-6 0-3.316406-2.683594-6-6-6zm0 0"/><path d="m312.089844 80.941406c0 3.3125 2.6875 6 6 6h66.519531c3.3125 0 6-2.6875 6-6 0-3.316406-2.6875-6-6-6h-66.519531c-3.3125 0-6 2.683594-6 6zm0 0"/><path d="m291.128906 86.941406h4.699219c3.316406 0 6-2.6875 6-6 0-3.316406-2.683594-6-6-6h-4.699219c-3.3125 0-6 2.683594-6 6 0 3.3125 2.6875 6 6 6zm0 0"/><path d="m452.128906 106.941406h-.988281c-3.3125 0-6 2.683594-6 6 0 3.3125 2.6875 6 6 6h.988281c3.316406 0 6-2.6875 6-6 0-3.316406-2.683594-6-6-6zm0 0"/><path d="m429.589844 106.941406h-48.878906c-3.316407 0-6 2.683594-6 6 0 3.3125 2.683593 6 6 6h48.878906c3.3125 0 6-2.6875 6-6 0-3.316406-2.6875-6-6-6zm0 0"/><path d="m358.789062 106.941406h-67.660156c-3.3125 0-6 2.683594-6 6 0 3.3125 2.6875 6 6 6h67.660156c3.316407 0 6-2.6875 6-6 0-3.316406-2.683593-6-6-6zm0 0"/></g></svg>